<mxfile host="app.diagrams.net" modified="2024-06-19T00:58:14.026Z" agent="Mozilla/5.0 (Macintosh; Intel Mac OS X 10_15_7) AppleWebKit/537.36 (KHTML, like Gecko) Chrome/112.0.0.0 Safari/537.36 Edg/112.0.1722.48" version="24.5.5" etag="aXqSFs5PmLmdq6sR5HfA" type="github">
  <diagram name="第 1 页" id="a1_WonFxa6GeATGuGZw7">
    <mxGraphModel>
      <root>
        <mxCell id="0" />
        <mxCell id="1" parent="0" />
      </root>
    </mxGraphModel>
  </diagram>
</mxfile>
